<?xml version="1.0" standalone="no"?>
<!DOCTYPE svg PUBLIC "-//W3C//DTD SVG 20010904//EN"
 "http://www.w3.org/TR/2001/REC-SVG-20010904/DTD/svg10.dtd">
<svg version="1.0" xmlns="http://www.w3.org/2000/svg"
 width="500.000000pt" height="500.000000pt" viewBox="0 0 500.000000 500.000000"
 preserveAspectRatio="xMidYMid meet">

<g transform="translate(0.000000,500.000000) scale(0.100000,-0.100000)"
fill="#000000" stroke="none">
<path d="M1422 4748 c-20 -26 -51 -97 -76 -174 -126 -397 -66 -875 169 -1349
93 -187 211 -363 324 -487 73 -78 81 -92 58 -101 -7 -3 -47 -32 -89 -66 -80
-64 -151 -145 -195 -221 l-25 -45 66 66 c128 130 217 194 356 259 137 63 256
91 420 97 353 14 623 -86 869 -322 88 -84 93 -87 70 -46 -41 74 -165 198 -278
278 -2 1 18 26 43 54 96 106 253 368 346 575 43 97 51 109 72 106 13 -2 82 -5
153 -7 188 -6 304 25 384 103 59 58 57 94 -10 168 -71 79 -129 160 -206 288
-110 184 -182 283 -251 347 -297 272 -706 152 -875 -256 -60 -144 -113 -354
-142 -555 -18 -126 -22 -457 -6 -570 4 -36 7 -68 5 -72 -3 -4 -61 -7 -130 -7
-68 0 -130 -3 -136 -7 -8 -5 -9 42 -4 172 15 391 -39 783 -149 1079 -128 344
-358 619 -573 685 -73 23 -174 27 -190 8z m206 -78 c291 -136 508 -537 596
-1100 26 -168 39 -340 40 -559 l1 -215 -70 -22 c-38 -11 -105 -36 -148 -54
-91 -38 -78 -44 -186 85 -251 301 -433 693 -503 1085 -20 115 -17 414 6 520
20 91 56 201 88 264 20 38 20 38 66 32 26 -3 75 -20 110 -36z m1747 -325 c130
-34 230 -101 312 -212 28 -37 92 -135 143 -218 50 -82 117 -183 148 -224 119
-155 119 -151 45 -200 -81 -54 -164 -76 -288 -75 -278 1 -435 109 -602 414
-60 109 -136 200 -168 200 -16 0 -17 -2 -3 -17 39 -45 40 -58 9 -155 -40 -125
-75 -267 -103 -418 -18 -101 -23 -161 -23 -315 0 -215 8 -256 55 -275 42 -18
75 3 137 85 63 84 185 322 233 457 19 54 39 98 43 98 5 0 23 -11 40 -24 18
-13 48 -31 67 -41 19 -10 36 -19 38 -20 7 -6 -73 -186 -134 -305 -63 -122
-207 -346 -259 -403 l-25 -28 -73 34 c-77 36 -177 72 -242 85 -37 7 -40 11
-49 52 -5 25 -9 164 -10 310 0 292 11 409 63 613 64 253 165 423 309 521 106
72 216 92 337 61z"/>
<path d="M1572 4348 c-18 -23 -43 -139 -49 -228 -15 -223 66 -556 202 -836 69
-142 197 -341 269 -418 40 -42 49 -47 73 -41 16 3 33 11 38 16 15 15 19 319 5
429 -19 161 -67 379 -110 503 -83 243 -226 485 -330 562 -37 27 -81 33 -98 13z"/>
<path d="M112 2518 c-9 -9 -12 -115 -12 -415 l0 -403 27 -11 c42 -16 191 -8
203 11 5 8 10 84 10 168 l0 152 150 0 150 0 0 -155 c0 -154 0 -155 25 -171 37
-24 191 -17 211 10 11 16 14 88 14 404 0 245 -4 390 -10 403 -10 17 -22 19
-113 19 -67 0 -107 -4 -115 -12 -8 -8 -12 -59 -12 -165 l0 -153 -150 0 -150 0
0 153 c0 106 -4 157 -12 165 -8 8 -47 12 -108 12 -61 0 -100 -4 -108 -12z"/>
<path d="M2540 2511 c-6 -13 -10 -159 -10 -405 0 -459 -10 -426 123 -426 59 0
89 5 105 16 l22 15 0 398 c0 295 -3 400 -12 409 -8 8 -48 12 -115 12 -91 0
-103 -2 -113 -19z"/>
<path d="M3510 2123 c0 -240 4 -414 10 -423 12 -20 202 -22 222 -2 9 9 14 67
18 208 5 179 7 197 24 210 20 14 43 18 81 14 41 -3 45 -25 45 -220 0 -145 3
-190 14 -206 13 -17 27 -19 116 -19 79 0 103 3 110 15 5 8 10 112 10 230 0
189 -3 220 -19 256 -51 113 -218 148 -361 77 l-60 -30 0 149 0 148 -105 0
-105 0 0 -407z"/>
<path d="M3006 2438 c-33 -57 -46 -93 -46 -129 0 -28 -2 -29 -43 -29 -24 0
-48 -5 -55 -12 -13 -13 -16 -116 -4 -135 4 -6 28 -13 52 -15 l45 -3 6 -145 c6
-155 18 -198 71 -247 64 -60 218 -75 330 -33 83 31 88 41 53 107 -40 72 -49
79 -80 59 -13 -9 -40 -16 -59 -16 -57 0 -67 26 -64 161 l3 114 70 3 c40 2 73
8 77 15 12 19 9 122 -4 135 -7 7 -40 12 -80 12 l-68 0 0 81 c0 115 -4 119
-100 119 l-79 0 -25 -42z"/>
<path d="M1207 2290 c-91 -23 -165 -82 -201 -160 -31 -66 -30 -237 1 -296 28
-52 92 -110 151 -135 119 -51 363 -37 446 26 19 15 19 16 -4 65 -33 71 -39 74
-96 48 -36 -16 -69 -21 -124 -21 -102 0 -150 25 -165 86 l-7 27 210 0 c242 0
242 0 242 79 0 116 -63 218 -162 261 -41 18 -76 24 -153 26 -55 2 -117 -1
-138 -6z m178 -144 c36 -15 55 -42 55 -75 0 -20 -5 -21 -115 -21 -106 0 -115
2 -115 19 0 24 37 70 64 81 32 13 73 12 111 -4z"/>
<path d="M1996 2290 c-117 -30 -221 -122 -251 -222 -32 -109 -13 -250 44 -319
79 -95 272 -112 378 -33 l32 24 13 -27 c13 -27 17 -28 97 -31 52 -2 88 1 97 9
11 9 14 60 14 270 l0 259 -23 15 c-55 36 -142 57 -252 61 -60 2 -127 -1 -149
-6z m169 -160 l27 -10 -4 -120 c-4 -142 -14 -160 -95 -167 -41 -4 -54 -1 -77
18 -65 56 -48 212 28 262 39 26 81 32 121 17z"/>
<path d="M4250 2263 c0 -10 56 -137 125 -283 l126 -264 -19 -26 c-23 -31 -69
-37 -111 -16 -16 9 -36 16 -44 16 -7 0 -29 -29 -48 -65 -34 -63 -34 -64 -14
-79 43 -32 93 -50 153 -54 135 -9 204 38 284 193 76 149 268 563 268 580 0 13
-19 15 -115 15 -136 0 -120 15 -191 -177 -27 -73 -51 -133 -54 -133 -3 0 -27
60 -54 133 -71 192 -55 177 -191 177 -103 0 -115 -2 -115 -17z"/>
<path d="M2033 1369 c-16 -16 -18 -535 -4 -558 12 -19 125 -27 163 -12 26 10
27 14 30 88 l3 78 75 7 c136 14 197 52 221 141 16 60 5 142 -24 187 -44 65
-78 75 -277 78 -131 2 -178 0 -187 -9z m286 -160 c30 -53 -9 -99 -84 -99 l-35
0 0 66 0 65 52 -3 c44 -3 55 -7 67 -29z"/>
<path d="M3188 1333 c-23 -27 -48 -79 -48 -103 0 -15 -6 -20 -29 -20 -40 0
-53 -20 -49 -77 3 -47 4 -48 38 -53 l35 -5 5 -95 c3 -52 10 -104 17 -115 44
-77 146 -104 260 -70 75 22 82 35 50 93 -19 33 -32 46 -44 44 -10 -2 -31 -5
-48 -5 l-30 -2 -3 78 -3 77 45 0 c49 0 56 8 56 69 0 47 -14 61 -62 61 l-38 0
0 54 c0 71 -15 86 -84 86 -38 0 -57 -5 -68 -17z"/>
<path d="M2704 1210 c-90 -21 -144 -86 -151 -184 -9 -107 22 -168 110 -214 46
-23 63 -26 147 -26 76 -1 104 4 143 21 26 12 47 27 47 33 0 6 -9 28 -20 50
l-20 39 -41 -14 c-81 -29 -171 -12 -177 32 -3 22 -1 22 140 25 l143 3 3 47 c6
85 -54 163 -143 187 -45 12 -133 13 -181 1z m140 -122 c22 -31 12 -38 -50 -38
-45 0 -54 3 -54 18 0 45 76 60 104 20z"/>
</g>
</svg>
